<?xml version="1.0" encoding="UTF-8"?>
<svg version="1.1" xmlns="http://www.w3.org/2000/svg" width="112" height="28">
<path d="M0 0 C4.12974965 2.06487482 6.29527061 3.7458555 8 8 C8.7121481 13.01815989 8.52912753 16.94174495 6.25 21.5 C3.55891188 24.49009791 1.62679122 25.76913524 -2.3671875 26.3359375 C-8.08522757 26.42500354 -11.56237048 25.99386657 -16 22 C-18.73957509 17.559999 -18.65531007 13.06666568 -18 8 C-13.98902931 -0.02194138 -8.43057162 -1.09038939 0 0 Z " fill="#C12929" transform="translate(104,0)"/>
<path d="M0 0 C4.21814817 3.9700218 7.61227103 8.30840284 11 13 C11.62648438 12.14535156 12.25296875 11.29070313 12.8984375 10.41015625 C13.72374614 9.29411389 14.54927862 8.17823702 15.375 7.0625 C15.7875 6.49853516 16.2 5.93457031 16.625 5.35351562 C19.7734375 1.11328125 19.7734375 1.11328125 22 0 C23.32 8.58 24.64 17.16 26 26 C23.69 26 21.38 26 19 26 C16.95301586 23.95301586 17.29954307 19.69588759 17 17 C15.35 19.31 13.7 21.62 12 24 C7.60841671 22.5361389 7.12052567 20.02168662 5 16 C4.34 19.3 3.68 22.6 3 26 C0.69 26 -1.62 26 -4 26 C-3.52572253 22.22853482 -3.04474135 18.45795448 -2.5625 14.6875 C-2.42779297 13.61564453 -2.29308594 12.54378906 -2.15429688 11.43945312 C-2.02216797 10.41142578 -1.89003906 9.38339844 -1.75390625 8.32421875 C-1.63345947 7.37635498 -1.5130127 6.42849121 -1.38891602 5.4519043 C-1 3 -1 3 0 0 Z " fill="#202020" transform="translate(56,0)"/>
<path d="M0 0 C2.31 0 4.62 0 7 0 C7.33 6.27 7.66 12.54 8 19 C9.65 18.67 11.3 18.34 13 18 C13.495 9.09 13.495 9.09 14 0 C17.01016382 1.93510531 18.90855359 3.1783728 21 6 C22.09374616 11.91580955 21.69438111 17.5838373 19 23 C17.25659791 25.4090647 16.42802671 25.9204904 13.4765625 26.46875 C12.06503906 26.48421875 12.06503906 26.48421875 10.625 26.5 C9.22121094 26.54640625 9.22121094 26.54640625 7.7890625 26.59375 C3.69446033 25.72206999 2.37815224 24.44939198 0 21 C-0.59552831 17.37248821 -0.47241435 13.8507688 -0.3125 10.1875 C-0.28994141 9.20845703 -0.26738281 8.22941406 -0.24414062 7.22070312 C-0.18539727 4.81222545 -0.10332129 2.40690922 0 0 Z " fill="#212121" transform="translate(0,1)"/>
<path d="M0 0 C2.4375 1.4375 2.4375 1.4375 5 4 C5.48224134 6.36088587 5.6240699 8.56900801 5.6640625 10.9765625 C5.77492188 11.64429688 5.88578125 12.31203125 6 13 C8.88461063 15.3343558 8.88461063 15.3343558 12.5 14.9375 C16 15 16 15 17.9375 16.5 C18.4634375 17.2425 18.4634375 17.2425 19 18 C18 21 18 21 16 22 C11.0490868 22.54317573 7.10511815 22.52241949 2.5625 20.375 C-0.40320952 17.62629361 -1.76108285 15.86250641 -3 12 C-3.04825254 7.30341969 -2.62849329 3.94273993 0 0 Z " fill="#212121" transform="translate(26,5)"/>
<path d="M0 0 C3.15504517 1.22962787 3.80550519 2.1702567 6 5 C7.61041859 8.72975734 8.48583736 12.14158715 7.44140625 16.13671875 C6.625 18.0625 6.625 18.0625 5 21 C0.26638024 18.08700322 0.26638024 18.08700322 -0.484375 15.0234375 C-0.67405294 13.01722855 -0.83801335 11.00863446 -1 9 C-1.66 8.34 -2.32 7.68 -3 7 C-4.670625 7.061875 -4.670625 7.061875 -6.375 7.125 C-10 7 -10 7 -12.4375 5.125 C-14 3 -14 3 -14 1 C-9.78467673 -1.10766163 -4.57911328 -0.50812615 0 0 Z " fill="#212121" transform="translate(43,1)"/>
</svg>
